<svg width="120" height="40" viewBox="0 0 120 40" xmlns="http://www.w3.org/2000/svg">
  <defs>
    <linearGradient id="fireGradient" x1="0%" y1="0%" x2="100%" y2="100%">
      <stop offset="0%" style="stop-color:#F2730D;stop-opacity:1" />
      <stop offset="50%" style="stop-color:#ff6600;stop-opacity:1" />
      <stop offset="100%" style="stop-color:#cc0000;stop-opacity:1" />
    </linearGradient>
  </defs>
  
  <!-- Fire flame icon -->
  <path d="M8 35 C8 35, 4 30, 4 25 C4 20, 8 18, 12 20 C12 15, 16 12, 20 15 C20 10, 24 8, 28 12 C28 8, 30 6, 32 8 C34 10, 32 15, 30 20 C28 25, 24 30, 20 32 C16 34, 12 35, 8 35 Z" 
        fill="url(#fireGradient)" 
        stroke="#1C140D" 
        stroke-width="0.5"/>
  
  <!-- Text -->
  <text x="40" y="16" font-family="Space Grotesk, sans-serif" font-size="12" font-weight="700" fill="#1C140D">
    Forest Fire
  </text>
  <text x="40" y="30" font-family="Space Grotesk, sans-serif" font-size="10" font-weight="400" fill="#9C704A">
    Simulation
  </text>
</svg>
